<mxfile host="Electron" agent="Mozilla/5.0 (Windows NT 10.0; Win64; x64) AppleWebKit/537.36 (KHTML, like Gecko) draw.io/28.2.8 Chrome/140.0.7339.240 Electron/38.4.0 Safari/537.36" version="28.2.8">
  <diagram id="GJNnh0aB_3hqjro0ZcHj" name="Page-1">
    <mxGraphModel dx="2153" dy="783" grid="1" gridSize="10" guides="1" tooltips="1" connect="1" arrows="1" fold="1" page="1" pageScale="1" pageWidth="850" pageHeight="1100" math="0" shadow="0">
      <root>
        <mxCell id="0" />
        <mxCell id="1" parent="0" />
        <mxCell id="fMOrN0PpRIhcox0cRY3--9" value="" style="edgeStyle=orthogonalEdgeStyle;rounded=0;orthogonalLoop=1;jettySize=auto;html=1;" edge="1" parent="1" source="fMOrN0PpRIhcox0cRY3--3" target="fMOrN0PpRIhcox0cRY3--8">
          <mxGeometry relative="1" as="geometry" />
        </mxCell>
        <mxCell id="fMOrN0PpRIhcox0cRY3--3" value="&lt;b&gt;Display Dashboard&lt;/b&gt;" style="rounded=0;whiteSpace=wrap;html=1;" vertex="1" parent="1">
          <mxGeometry x="320" y="150" width="120" height="60" as="geometry" />
        </mxCell>
        <mxCell id="fMOrN0PpRIhcox0cRY3--6" value="&lt;b&gt;Button Value&lt;/b&gt;" style="rhombus;whiteSpace=wrap;html=1;" vertex="1" parent="1">
          <mxGeometry x="320" y="350" width="120" height="80" as="geometry" />
        </mxCell>
        <mxCell id="fMOrN0PpRIhcox0cRY3--10" value="" style="edgeStyle=orthogonalEdgeStyle;rounded=0;orthogonalLoop=1;jettySize=auto;html=1;" edge="1" parent="1" source="fMOrN0PpRIhcox0cRY3--8" target="fMOrN0PpRIhcox0cRY3--6">
          <mxGeometry relative="1" as="geometry" />
        </mxCell>
        <mxCell id="fMOrN0PpRIhcox0cRY3--8" value="&lt;b&gt;User clicks a&lt;/b&gt;&lt;br&gt;&lt;div&gt;&lt;b&gt;button on the&lt;/b&gt;&lt;/div&gt;&lt;div&gt;&lt;b&gt;dashboard&lt;/b&gt;&lt;/div&gt;" style="shape=parallelogram;perimeter=parallelogramPerimeter;whiteSpace=wrap;html=1;fixedSize=1;" vertex="1" parent="1">
          <mxGeometry x="320" y="250" width="120" height="60" as="geometry" />
        </mxCell>
        <mxCell id="fMOrN0PpRIhcox0cRY3--38" value="" style="edgeStyle=orthogonalEdgeStyle;rounded=0;orthogonalLoop=1;jettySize=auto;html=1;" edge="1" parent="1" source="fMOrN0PpRIhcox0cRY3--11" target="fMOrN0PpRIhcox0cRY3--37">
          <mxGeometry relative="1" as="geometry" />
        </mxCell>
        <mxCell id="fMOrN0PpRIhcox0cRY3--11" value="&lt;b&gt;Display game page&lt;/b&gt;" style="rounded=0;whiteSpace=wrap;html=1;" vertex="1" parent="1">
          <mxGeometry x="40" y="510" width="120" height="60" as="geometry" />
        </mxCell>
        <mxCell id="fMOrN0PpRIhcox0cRY3--79" value="" style="edgeStyle=orthogonalEdgeStyle;rounded=0;orthogonalLoop=1;jettySize=auto;html=1;" edge="1" parent="1" source="fMOrN0PpRIhcox0cRY3--12" target="fMOrN0PpRIhcox0cRY3--76">
          <mxGeometry relative="1" as="geometry" />
        </mxCell>
        <mxCell id="fMOrN0PpRIhcox0cRY3--12" value="&lt;b&gt;Display leaderboard page&lt;/b&gt;" style="rounded=0;whiteSpace=wrap;html=1;" vertex="1" parent="1">
          <mxGeometry x="600" y="510" width="120" height="60" as="geometry" />
        </mxCell>
        <mxCell id="fMOrN0PpRIhcox0cRY3--56" value="" style="edgeStyle=orthogonalEdgeStyle;rounded=0;orthogonalLoop=1;jettySize=auto;html=1;" edge="1" parent="1" source="fMOrN0PpRIhcox0cRY3--22" target="fMOrN0PpRIhcox0cRY3--53">
          <mxGeometry relative="1" as="geometry" />
        </mxCell>
        <mxCell id="fMOrN0PpRIhcox0cRY3--22" value="&lt;b&gt;Display Create Account Page&lt;/b&gt;" style="rounded=0;whiteSpace=wrap;html=1;" vertex="1" parent="1">
          <mxGeometry x="320" y="510" width="120" height="60" as="geometry" />
        </mxCell>
        <mxCell id="fMOrN0PpRIhcox0cRY3--87" value="" style="edgeStyle=orthogonalEdgeStyle;rounded=0;orthogonalLoop=1;jettySize=auto;html=1;" edge="1" parent="1" source="fMOrN0PpRIhcox0cRY3--28" target="fMOrN0PpRIhcox0cRY3--86">
          <mxGeometry relative="1" as="geometry" />
        </mxCell>
        <mxCell id="fMOrN0PpRIhcox0cRY3--28" value="&lt;b&gt;Display Account Details page&lt;/b&gt;" style="rounded=0;whiteSpace=wrap;html=1;" vertex="1" parent="1">
          <mxGeometry x="880" y="510" width="120" height="60" as="geometry" />
        </mxCell>
        <mxCell id="fMOrN0PpRIhcox0cRY3--29" value="" style="endArrow=classic;html=1;rounded=0;exitX=0.5;exitY=1;exitDx=0;exitDy=0;entryX=0.5;entryY=0;entryDx=0;entryDy=0;" edge="1" parent="1" source="fMOrN0PpRIhcox0cRY3--6" target="fMOrN0PpRIhcox0cRY3--22">
          <mxGeometry width="50" height="50" relative="1" as="geometry">
            <mxPoint x="490" y="560" as="sourcePoint" />
            <mxPoint x="540" y="510" as="targetPoint" />
          </mxGeometry>
        </mxCell>
        <mxCell id="fMOrN0PpRIhcox0cRY3--33" value="&lt;b&gt;Create Acc.&lt;/b&gt;" style="edgeLabel;html=1;align=center;verticalAlign=middle;resizable=0;points=[];" vertex="1" connectable="0" parent="fMOrN0PpRIhcox0cRY3--29">
          <mxGeometry x="0.4042" relative="1" as="geometry">
            <mxPoint as="offset" />
          </mxGeometry>
        </mxCell>
        <mxCell id="fMOrN0PpRIhcox0cRY3--30" value="" style="endArrow=classic;html=1;rounded=0;entryX=0.5;entryY=0;entryDx=0;entryDy=0;" edge="1" parent="1" target="fMOrN0PpRIhcox0cRY3--11">
          <mxGeometry width="50" height="50" relative="1" as="geometry">
            <mxPoint x="380" y="470" as="sourcePoint" />
            <mxPoint x="240" y="420" as="targetPoint" />
            <Array as="points">
              <mxPoint x="100" y="470" />
            </Array>
          </mxGeometry>
        </mxCell>
        <mxCell id="fMOrN0PpRIhcox0cRY3--34" value="&lt;b&gt;Play&lt;/b&gt;" style="edgeLabel;html=1;align=center;verticalAlign=middle;resizable=0;points=[];" vertex="1" connectable="0" parent="fMOrN0PpRIhcox0cRY3--30">
          <mxGeometry x="0.849" y="2" relative="1" as="geometry">
            <mxPoint as="offset" />
          </mxGeometry>
        </mxCell>
        <mxCell id="fMOrN0PpRIhcox0cRY3--32" value="" style="endArrow=classic;html=1;rounded=0;entryX=0.5;entryY=0;entryDx=0;entryDy=0;" edge="1" parent="1" target="fMOrN0PpRIhcox0cRY3--12">
          <mxGeometry width="50" height="50" relative="1" as="geometry">
            <mxPoint x="660" y="470" as="sourcePoint" />
            <mxPoint x="720" y="370" as="targetPoint" />
          </mxGeometry>
        </mxCell>
        <mxCell id="fMOrN0PpRIhcox0cRY3--35" value="&lt;b&gt;Leaderboard&lt;/b&gt;" style="edgeLabel;html=1;align=center;verticalAlign=middle;resizable=0;points=[];" vertex="1" connectable="0" parent="fMOrN0PpRIhcox0cRY3--32">
          <mxGeometry x="-0.1833" y="1" relative="1" as="geometry">
            <mxPoint as="offset" />
          </mxGeometry>
        </mxCell>
        <mxCell id="fMOrN0PpRIhcox0cRY3--41" value="" style="edgeStyle=orthogonalEdgeStyle;rounded=0;orthogonalLoop=1;jettySize=auto;html=1;" edge="1" parent="1" source="fMOrN0PpRIhcox0cRY3--37" target="fMOrN0PpRIhcox0cRY3--40">
          <mxGeometry relative="1" as="geometry" />
        </mxCell>
        <mxCell id="fMOrN0PpRIhcox0cRY3--37" value="&lt;b&gt;Input Player 1 Details&lt;/b&gt;" style="shape=parallelogram;perimeter=parallelogramPerimeter;whiteSpace=wrap;html=1;fixedSize=1;" vertex="1" parent="1">
          <mxGeometry x="40" y="610" width="120" height="60" as="geometry" />
        </mxCell>
        <mxCell id="fMOrN0PpRIhcox0cRY3--42" style="edgeStyle=orthogonalEdgeStyle;rounded=0;orthogonalLoop=1;jettySize=auto;html=1;entryX=0;entryY=0.5;entryDx=0;entryDy=0;" edge="1" parent="1" source="fMOrN0PpRIhcox0cRY3--40" target="fMOrN0PpRIhcox0cRY3--37">
          <mxGeometry relative="1" as="geometry">
            <Array as="points">
              <mxPoint y="750" />
              <mxPoint y="640" />
            </Array>
          </mxGeometry>
        </mxCell>
        <mxCell id="fMOrN0PpRIhcox0cRY3--43" value="&lt;b&gt;No&lt;/b&gt;" style="edgeLabel;html=1;align=center;verticalAlign=middle;resizable=0;points=[];" vertex="1" connectable="0" parent="fMOrN0PpRIhcox0cRY3--42">
          <mxGeometry x="-0.79" y="1" relative="1" as="geometry">
            <mxPoint as="offset" />
          </mxGeometry>
        </mxCell>
        <mxCell id="fMOrN0PpRIhcox0cRY3--47" value="" style="edgeStyle=orthogonalEdgeStyle;rounded=0;orthogonalLoop=1;jettySize=auto;html=1;" edge="1" parent="1" source="fMOrN0PpRIhcox0cRY3--40" target="fMOrN0PpRIhcox0cRY3--46">
          <mxGeometry relative="1" as="geometry" />
        </mxCell>
        <mxCell id="fMOrN0PpRIhcox0cRY3--48" value="&lt;b&gt;Yes&lt;/b&gt;" style="edgeLabel;html=1;align=center;verticalAlign=middle;resizable=0;points=[];" vertex="1" connectable="0" parent="fMOrN0PpRIhcox0cRY3--47">
          <mxGeometry x="-0.1917" y="-1" relative="1" as="geometry">
            <mxPoint as="offset" />
          </mxGeometry>
        </mxCell>
        <mxCell id="fMOrN0PpRIhcox0cRY3--40" value="&lt;b&gt;Valid?&lt;/b&gt;" style="rhombus;whiteSpace=wrap;html=1;" vertex="1" parent="1">
          <mxGeometry x="40" y="710" width="120" height="80" as="geometry" />
        </mxCell>
        <mxCell id="fMOrN0PpRIhcox0cRY3--45" value="" style="edgeStyle=orthogonalEdgeStyle;rounded=0;orthogonalLoop=1;jettySize=auto;html=1;" edge="1" parent="1" source="fMOrN0PpRIhcox0cRY3--44" target="fMOrN0PpRIhcox0cRY3--3">
          <mxGeometry relative="1" as="geometry" />
        </mxCell>
        <mxCell id="fMOrN0PpRIhcox0cRY3--44" value="&lt;b&gt;Start&lt;/b&gt;" style="strokeWidth=2;html=1;shape=mxgraph.flowchart.terminator;whiteSpace=wrap;" vertex="1" parent="1">
          <mxGeometry x="330" y="50" width="100" height="60" as="geometry" />
        </mxCell>
        <mxCell id="fMOrN0PpRIhcox0cRY3--50" value="" style="edgeStyle=orthogonalEdgeStyle;rounded=0;orthogonalLoop=1;jettySize=auto;html=1;" edge="1" parent="1" source="fMOrN0PpRIhcox0cRY3--46" target="fMOrN0PpRIhcox0cRY3--49">
          <mxGeometry relative="1" as="geometry" />
        </mxCell>
        <mxCell id="fMOrN0PpRIhcox0cRY3--46" value="&lt;b&gt;Input Player 2 Details&lt;/b&gt;" style="shape=parallelogram;perimeter=parallelogramPerimeter;whiteSpace=wrap;html=1;fixedSize=1;" vertex="1" parent="1">
          <mxGeometry x="40" y="830" width="120" height="60" as="geometry" />
        </mxCell>
        <mxCell id="fMOrN0PpRIhcox0cRY3--51" style="edgeStyle=orthogonalEdgeStyle;rounded=0;orthogonalLoop=1;jettySize=auto;html=1;entryX=0;entryY=0.5;entryDx=0;entryDy=0;" edge="1" parent="1" source="fMOrN0PpRIhcox0cRY3--49" target="fMOrN0PpRIhcox0cRY3--46">
          <mxGeometry relative="1" as="geometry">
            <Array as="points">
              <mxPoint y="970" />
              <mxPoint y="860" />
            </Array>
          </mxGeometry>
        </mxCell>
        <mxCell id="fMOrN0PpRIhcox0cRY3--52" value="&lt;b&gt;No&lt;/b&gt;" style="edgeLabel;html=1;align=center;verticalAlign=middle;resizable=0;points=[];" vertex="1" connectable="0" parent="fMOrN0PpRIhcox0cRY3--51">
          <mxGeometry x="-0.8067" y="1" relative="1" as="geometry">
            <mxPoint as="offset" />
          </mxGeometry>
        </mxCell>
        <mxCell id="fMOrN0PpRIhcox0cRY3--49" value="&lt;b&gt;Valid?&lt;/b&gt;" style="rhombus;whiteSpace=wrap;html=1;" vertex="1" parent="1">
          <mxGeometry x="40" y="930" width="120" height="80" as="geometry" />
        </mxCell>
        <mxCell id="fMOrN0PpRIhcox0cRY3--57" value="" style="edgeStyle=orthogonalEdgeStyle;rounded=0;orthogonalLoop=1;jettySize=auto;html=1;" edge="1" parent="1" source="fMOrN0PpRIhcox0cRY3--53" target="fMOrN0PpRIhcox0cRY3--54">
          <mxGeometry relative="1" as="geometry" />
        </mxCell>
        <mxCell id="fMOrN0PpRIhcox0cRY3--53" value="&lt;b&gt;Input Username&lt;/b&gt;" style="shape=parallelogram;perimeter=parallelogramPerimeter;whiteSpace=wrap;html=1;fixedSize=1;" vertex="1" parent="1">
          <mxGeometry x="320" y="610" width="120" height="60" as="geometry" />
        </mxCell>
        <mxCell id="fMOrN0PpRIhcox0cRY3--58" value="" style="edgeStyle=orthogonalEdgeStyle;rounded=0;orthogonalLoop=1;jettySize=auto;html=1;" edge="1" parent="1" source="fMOrN0PpRIhcox0cRY3--54" target="fMOrN0PpRIhcox0cRY3--55">
          <mxGeometry relative="1" as="geometry" />
        </mxCell>
        <mxCell id="fMOrN0PpRIhcox0cRY3--54" value="&lt;b&gt;Input Password&lt;/b&gt;" style="shape=parallelogram;perimeter=parallelogramPerimeter;whiteSpace=wrap;html=1;fixedSize=1;" vertex="1" parent="1">
          <mxGeometry x="320" y="710" width="120" height="60" as="geometry" />
        </mxCell>
        <mxCell id="fMOrN0PpRIhcox0cRY3--62" value="" style="edgeStyle=orthogonalEdgeStyle;rounded=0;orthogonalLoop=1;jettySize=auto;html=1;" edge="1" parent="1" source="fMOrN0PpRIhcox0cRY3--55" target="fMOrN0PpRIhcox0cRY3--61">
          <mxGeometry relative="1" as="geometry" />
        </mxCell>
        <mxCell id="fMOrN0PpRIhcox0cRY3--55" value="&lt;b&gt;Input Date Of&lt;/b&gt;&lt;div&gt;&lt;b&gt;&amp;nbsp;Birth&lt;/b&gt;&lt;/div&gt;" style="shape=parallelogram;perimeter=parallelogramPerimeter;whiteSpace=wrap;html=1;fixedSize=1;" vertex="1" parent="1">
          <mxGeometry x="320" y="810" width="120" height="60" as="geometry" />
        </mxCell>
        <mxCell id="fMOrN0PpRIhcox0cRY3--64" style="edgeStyle=orthogonalEdgeStyle;rounded=0;orthogonalLoop=1;jettySize=auto;html=1;entryX=1;entryY=0.5;entryDx=0;entryDy=0;" edge="1" parent="1" source="fMOrN0PpRIhcox0cRY3--59" target="fMOrN0PpRIhcox0cRY3--53">
          <mxGeometry relative="1" as="geometry">
            <Array as="points">
              <mxPoint x="480" y="1050" />
              <mxPoint x="480" y="640" />
            </Array>
          </mxGeometry>
        </mxCell>
        <mxCell id="fMOrN0PpRIhcox0cRY3--65" value="&lt;b&gt;No&lt;/b&gt;" style="edgeLabel;html=1;align=center;verticalAlign=middle;resizable=0;points=[];" vertex="1" connectable="0" parent="fMOrN0PpRIhcox0cRY3--64">
          <mxGeometry x="-0.922" y="-4" relative="1" as="geometry">
            <mxPoint as="offset" />
          </mxGeometry>
        </mxCell>
        <mxCell id="fMOrN0PpRIhcox0cRY3--68" value="" style="edgeStyle=orthogonalEdgeStyle;rounded=0;orthogonalLoop=1;jettySize=auto;html=1;" edge="1" parent="1" source="fMOrN0PpRIhcox0cRY3--59" target="fMOrN0PpRIhcox0cRY3--67">
          <mxGeometry relative="1" as="geometry" />
        </mxCell>
        <mxCell id="fMOrN0PpRIhcox0cRY3--69" value="&lt;b&gt;Yes&lt;/b&gt;" style="edgeLabel;html=1;align=center;verticalAlign=middle;resizable=0;points=[];" vertex="1" connectable="0" parent="fMOrN0PpRIhcox0cRY3--68">
          <mxGeometry x="-0.1833" relative="1" as="geometry">
            <mxPoint as="offset" />
          </mxGeometry>
        </mxCell>
        <mxCell id="fMOrN0PpRIhcox0cRY3--59" value="&lt;b&gt;Are Details&lt;/b&gt;&lt;div&gt;&lt;b&gt;Valid?&lt;/b&gt;&lt;/div&gt;" style="rhombus;whiteSpace=wrap;html=1;" vertex="1" parent="1">
          <mxGeometry x="320" y="1010" width="120" height="80" as="geometry" />
        </mxCell>
        <mxCell id="fMOrN0PpRIhcox0cRY3--63" value="" style="edgeStyle=orthogonalEdgeStyle;rounded=0;orthogonalLoop=1;jettySize=auto;html=1;" edge="1" parent="1" source="fMOrN0PpRIhcox0cRY3--61" target="fMOrN0PpRIhcox0cRY3--59">
          <mxGeometry relative="1" as="geometry" />
        </mxCell>
        <mxCell id="fMOrN0PpRIhcox0cRY3--61" value="&lt;b&gt;Submit&lt;/b&gt;" style="shape=parallelogram;perimeter=parallelogramPerimeter;whiteSpace=wrap;html=1;fixedSize=1;" vertex="1" parent="1">
          <mxGeometry x="320" y="910" width="120" height="60" as="geometry" />
        </mxCell>
        <mxCell id="fMOrN0PpRIhcox0cRY3--71" value="" style="edgeStyle=orthogonalEdgeStyle;rounded=0;orthogonalLoop=1;jettySize=auto;html=1;" edge="1" parent="1" source="fMOrN0PpRIhcox0cRY3--67" target="fMOrN0PpRIhcox0cRY3--70">
          <mxGeometry relative="1" as="geometry" />
        </mxCell>
        <mxCell id="fMOrN0PpRIhcox0cRY3--67" value="&lt;b&gt;Save Data to user JSON&lt;/b&gt;" style="rounded=0;whiteSpace=wrap;html=1;" vertex="1" parent="1">
          <mxGeometry x="320" y="1130" width="120" height="60" as="geometry" />
        </mxCell>
        <mxCell id="fMOrN0PpRIhcox0cRY3--72" style="edgeStyle=orthogonalEdgeStyle;rounded=0;orthogonalLoop=1;jettySize=auto;html=1;entryX=1;entryY=0.5;entryDx=0;entryDy=0;dashed=1;exitX=0.5;exitY=1;exitDx=0;exitDy=0;" edge="1" parent="1" source="fMOrN0PpRIhcox0cRY3--70" target="fMOrN0PpRIhcox0cRY3--3">
          <mxGeometry relative="1" as="geometry">
            <Array as="points">
              <mxPoint x="380" y="1320" />
              <mxPoint x="520" y="1320" />
              <mxPoint x="520" y="180" />
            </Array>
          </mxGeometry>
        </mxCell>
        <mxCell id="fMOrN0PpRIhcox0cRY3--70" value="&lt;b&gt;Redirect to dashboard&lt;/b&gt;" style="rounded=0;whiteSpace=wrap;html=1;" vertex="1" parent="1">
          <mxGeometry x="320" y="1230" width="120" height="60" as="geometry" />
        </mxCell>
        <mxCell id="fMOrN0PpRIhcox0cRY3--74" value="" style="endArrow=classic;html=1;rounded=0;entryX=0.5;entryY=0;entryDx=0;entryDy=0;" edge="1" parent="1" target="fMOrN0PpRIhcox0cRY3--28">
          <mxGeometry width="50" height="50" relative="1" as="geometry">
            <mxPoint x="380" y="470" as="sourcePoint" />
            <mxPoint x="700" y="460" as="targetPoint" />
            <Array as="points">
              <mxPoint x="940" y="470" />
            </Array>
          </mxGeometry>
        </mxCell>
        <mxCell id="fMOrN0PpRIhcox0cRY3--75" value="&lt;b&gt;Acc. Details&lt;/b&gt;" style="edgeLabel;html=1;align=center;verticalAlign=middle;resizable=0;points=[];" vertex="1" connectable="0" parent="fMOrN0PpRIhcox0cRY3--74">
          <mxGeometry x="0.923" relative="1" as="geometry">
            <mxPoint as="offset" />
          </mxGeometry>
        </mxCell>
        <mxCell id="fMOrN0PpRIhcox0cRY3--77" style="edgeStyle=orthogonalEdgeStyle;rounded=0;orthogonalLoop=1;jettySize=auto;html=1;entryX=1;entryY=0.5;entryDx=0;entryDy=0;" edge="1" parent="1" source="fMOrN0PpRIhcox0cRY3--76" target="fMOrN0PpRIhcox0cRY3--12">
          <mxGeometry relative="1" as="geometry">
            <Array as="points">
              <mxPoint x="760" y="640" />
              <mxPoint x="760" y="540" />
            </Array>
          </mxGeometry>
        </mxCell>
        <mxCell id="fMOrN0PpRIhcox0cRY3--78" value="&lt;b&gt;No&lt;/b&gt;" style="edgeLabel;html=1;align=center;verticalAlign=middle;resizable=0;points=[];" vertex="1" connectable="0" parent="fMOrN0PpRIhcox0cRY3--77">
          <mxGeometry x="-0.7166" y="1" relative="1" as="geometry">
            <mxPoint as="offset" />
          </mxGeometry>
        </mxCell>
        <mxCell id="fMOrN0PpRIhcox0cRY3--83" value="" style="edgeStyle=orthogonalEdgeStyle;rounded=0;orthogonalLoop=1;jettySize=auto;html=1;" edge="1" parent="1" source="fMOrN0PpRIhcox0cRY3--76" target="fMOrN0PpRIhcox0cRY3--82">
          <mxGeometry relative="1" as="geometry" />
        </mxCell>
        <mxCell id="fMOrN0PpRIhcox0cRY3--84" value="&lt;b&gt;Yes&lt;/b&gt;" style="edgeLabel;html=1;align=center;verticalAlign=middle;resizable=0;points=[];" vertex="1" connectable="0" parent="fMOrN0PpRIhcox0cRY3--83">
          <mxGeometry x="-0.2172" y="-3" relative="1" as="geometry">
            <mxPoint as="offset" />
          </mxGeometry>
        </mxCell>
        <mxCell id="fMOrN0PpRIhcox0cRY3--76" value="&lt;b&gt;Exit?&lt;/b&gt;" style="shape=parallelogram;perimeter=parallelogramPerimeter;whiteSpace=wrap;html=1;fixedSize=1;" vertex="1" parent="1">
          <mxGeometry x="600" y="610" width="120" height="60" as="geometry" />
        </mxCell>
        <mxCell id="fMOrN0PpRIhcox0cRY3--85" style="edgeStyle=orthogonalEdgeStyle;rounded=0;orthogonalLoop=1;jettySize=auto;html=1;endArrow=none;endFill=0;dashed=1;" edge="1" parent="1" source="fMOrN0PpRIhcox0cRY3--82">
          <mxGeometry relative="1" as="geometry">
            <mxPoint x="520" y="1320" as="targetPoint" />
            <Array as="points">
              <mxPoint x="660" y="1320" />
            </Array>
          </mxGeometry>
        </mxCell>
        <mxCell id="fMOrN0PpRIhcox0cRY3--82" value="&lt;b&gt;Redirect to dashboard&lt;/b&gt;" style="rounded=0;whiteSpace=wrap;html=1;" vertex="1" parent="1">
          <mxGeometry x="600" y="710" width="120" height="60" as="geometry" />
        </mxCell>
        <mxCell id="fMOrN0PpRIhcox0cRY3--88" style="edgeStyle=orthogonalEdgeStyle;rounded=0;orthogonalLoop=1;jettySize=auto;html=1;entryX=1;entryY=0.5;entryDx=0;entryDy=0;" edge="1" parent="1" source="fMOrN0PpRIhcox0cRY3--86" target="fMOrN0PpRIhcox0cRY3--28">
          <mxGeometry relative="1" as="geometry">
            <Array as="points">
              <mxPoint x="1040" y="640" />
              <mxPoint x="1040" y="540" />
            </Array>
          </mxGeometry>
        </mxCell>
        <mxCell id="fMOrN0PpRIhcox0cRY3--89" value="&lt;b&gt;No&lt;/b&gt;" style="edgeLabel;html=1;align=center;verticalAlign=middle;resizable=0;points=[];" vertex="1" connectable="0" parent="fMOrN0PpRIhcox0cRY3--88">
          <mxGeometry x="-0.7179" y="-4" relative="1" as="geometry">
            <mxPoint as="offset" />
          </mxGeometry>
        </mxCell>
        <mxCell id="fMOrN0PpRIhcox0cRY3--92" value="" style="edgeStyle=orthogonalEdgeStyle;rounded=0;orthogonalLoop=1;jettySize=auto;html=1;" edge="1" parent="1" source="fMOrN0PpRIhcox0cRY3--86" target="fMOrN0PpRIhcox0cRY3--91">
          <mxGeometry relative="1" as="geometry" />
        </mxCell>
        <mxCell id="fMOrN0PpRIhcox0cRY3--93" value="&lt;b&gt;Yes&lt;/b&gt;" style="edgeLabel;html=1;align=center;verticalAlign=middle;resizable=0;points=[];" vertex="1" connectable="0" parent="fMOrN0PpRIhcox0cRY3--92">
          <mxGeometry x="-0.14" y="3" relative="1" as="geometry">
            <mxPoint as="offset" />
          </mxGeometry>
        </mxCell>
        <mxCell id="fMOrN0PpRIhcox0cRY3--86" value="&lt;b&gt;Exit?&lt;/b&gt;" style="shape=parallelogram;perimeter=parallelogramPerimeter;whiteSpace=wrap;html=1;fixedSize=1;" vertex="1" parent="1">
          <mxGeometry x="880" y="610" width="120" height="60" as="geometry" />
        </mxCell>
        <mxCell id="fMOrN0PpRIhcox0cRY3--94" style="edgeStyle=orthogonalEdgeStyle;rounded=0;orthogonalLoop=1;jettySize=auto;html=1;dashed=1;endArrow=none;endFill=0;" edge="1" parent="1" source="fMOrN0PpRIhcox0cRY3--91">
          <mxGeometry relative="1" as="geometry">
            <mxPoint x="660" y="1320" as="targetPoint" />
            <Array as="points">
              <mxPoint x="940" y="1320" />
            </Array>
          </mxGeometry>
        </mxCell>
        <mxCell id="fMOrN0PpRIhcox0cRY3--91" value="&lt;b&gt;Redirect to dashboard&lt;/b&gt;" style="rounded=0;whiteSpace=wrap;html=1;" vertex="1" parent="1">
          <mxGeometry x="880" y="710" width="120" height="60" as="geometry" />
        </mxCell>
        <mxCell id="fMOrN0PpRIhcox0cRY3--95" value="&lt;h1 style=&quot;margin-top: 0px;&quot;&gt;&lt;u&gt;Notes&lt;/u&gt;&lt;/h1&gt;&lt;div&gt;&lt;font style=&quot;font-size: 16px;&quot;&gt;&lt;b style=&quot;&quot;&gt;- Each menu will have a clickable title to go back to the dashboard (unless unreasonable)&lt;/b&gt;&lt;/font&gt;&lt;/div&gt;&lt;div&gt;&lt;font style=&quot;font-size: 16px;&quot;&gt;&lt;b style=&quot;&quot;&gt;-&amp;nbsp;&lt;/b&gt;&lt;/font&gt;&lt;/div&gt;" style="text;html=1;whiteSpace=wrap;overflow=hidden;rounded=0;" vertex="1" parent="1">
          <mxGeometry x="560" y="40" width="480" height="400" as="geometry" />
        </mxCell>
        <mxCell id="fMOrN0PpRIhcox0cRY3--96" value="Finshhhhh" style="text;html=1;whiteSpace=wrap;strokeColor=none;fillColor=none;align=center;verticalAlign=middle;rounded=0;" vertex="1" parent="1">
          <mxGeometry x="80" y="1035" width="60" height="30" as="geometry" />
        </mxCell>
      </root>
    </mxGraphModel>
  </diagram>
</mxfile>
